<svg width="33" height="27" viewBox="0 0 33 27" fill="none" xmlns="http://www.w3.org/2000/svg">
<path d="M3 26.5C2.175 26.5 1.46875 26.1818 0.88125 25.5453C0.29375 24.9089 0 24.1437 0 23.25V3.75C0 2.85625 0.29375 2.09115 0.88125 1.45469C1.46875 0.818229 2.175 0.5 3 0.5H12L15 3.75H27C27.825 3.75 28.5313 4.06823 29.1188 4.70469C29.7063 5.34115 30 6.10625 30 7H13.7625L10.7625 3.75H3V23.25L6.6 10.25H32.25L28.3875 24.1844C28.1875 24.8885 27.8188 25.4505 27.2813 25.8703C26.7438 26.2901 26.15 26.5 25.5 26.5H3ZM6.15 23.25H25.5L28.2 13.5H8.85L6.15 23.25Z" fill="#E8EAED"/>
</svg>
