<?xml version="1.0" encoding="utf-8" ?>
<svg xmlns="http://www.w3.org/2000/svg" xmlns:xlink="http://www.w3.org/1999/xlink" width="302" height="280">
	<path d="M259.395 0L268.579 0C268.721 0.418417 268.897 0.808659 269.177 1.15491C269.912 2.06099 270.968 2.82193 271.8 3.65108C274.09 5.93311 276.383 8.48489 278.126 11.2182C279.663 13.6281 280.389 16.4344 281.756 18.9308C284.008 23.0404 287.029 26.6273 288.909 30.9631C290.032 33.5527 290.319 36.4902 291.485 39.0268C292.07 40.3004 294.742 42.4496 294.904 43.1708C295.937 44.2729 298.936 59.2364 299.223 61.5161C299.676 65.1039 299.98 69.0048 299.858 72.6211C299.752 75.7399 298.069 86.6399 297.148 89.5051C296.342 92.011 294.978 94.5395 293.729 96.8556C292.572 99.0018 290.986 100.885 289.836 103.026C288.388 105.722 287.31 108.995 285.528 111.463C283.875 113.754 281.648 115.567 279.988 117.839C277.949 120.631 276.875 124.143 274.314 126.524C273.472 127.308 272.435 128.084 271.746 128.994C270.173 131.073 269.563 135.024 269.462 137.583C269.294 141.871 270.118 146.742 273.071 149.986C273.495 152.659 274.008 155.09 275.02 157.604C275.682 159.25 276.559 160.885 277.005 162.605C277.824 165.757 277.276 169.172 278.06 172.384C278.542 174.358 279.656 176.147 280.128 178.127C280.766 180.805 280.719 183.728 281.525 186.353C282.024 187.979 283.188 189.346 283.497 191.037C284.329 195.6 283.647 200.319 283.714 204.919C283.796 210.517 284.726 220.431 283.743 225.633C283.358 227.672 281.488 228.88 280.98 230.774C280.694 231.841 280.807 233.842 280.164 234.688C280.126 234.738 280.083 234.784 280.043 234.832C276.294 235.96 272.476 236.458 268.651 237.198C268.201 234.494 268.135 231.927 268.092 229.199C264.2 226.029 264.972 221.923 264.246 217.437C263.163 216.113 262.169 214.814 261.612 213.169C260.482 209.829 260.714 206.111 260.016 202.673C259.506 200.162 258.54 197.741 257.901 195.259C257.26 192.772 256.519 190.131 256.183 187.586C255.981 186.05 255.999 184.486 255.768 182.956C255.332 180.078 254.741 177.7 254.715 174.761C252.375 171.691 253.071 170.316 251.877 167.034C251.095 164.881 249.358 163.186 248.593 161.038C246.827 156.076 246.065 150.589 243.997 145.744C241.781 140.552 238.999 135.577 236.416 130.562C234.589 127.015 232.93 123.308 230.941 119.854C229.563 117.461 227.413 115.503 226.204 113.018C225.444 111.455 225.106 109.719 224.894 108.003C221.693 105.455 220.858 101.414 218.616 98.1626C217.201 96.1157 215.387 94.1161 214.171 91.9713C213.187 90.2364 212.893 88.0313 211.696 86.4375C209.584 83.6256 206.562 81.7519 204.406 78.9009C202.98 76.0682 200.59 74.2362 198.701 71.7871C197.175 69.8085 195.827 67.6984 194.274 65.7393C191.681 62.47 188.862 59.4112 186.133 56.2595C182.209 51.7275 178.296 47.132 174.154 42.7964C171.913 40.4512 169.199 38.5576 166.98 36.209C165.843 35.0064 165.282 33.3327 164.235 32.0587C162.579 30.0421 160.318 28.3605 158.493 26.4699C154.195 22.0176 151.439 17.0058 151.648 10.6429C151.718 8.50043 153.344 8.96814 154.287 7.57931C155.009 6.51511 155.132 4.57798 156.159 3.76857C158.545 1.88766 167.382 2.76661 170.303 3.06173C172.308 5.77671 174.068 5.74841 176.512 7.69659C179.234 9.8663 182.103 12.2447 184.538 14.7298C185.981 16.2032 187.253 17.8474 188.719 19.2934C190.529 21.0783 192.517 22.612 194.089 24.6355C195.215 26.0853 196.049 27.752 196.909 29.3677C198.367 30.0996 200.045 30.7555 201.165 31.9762C203.316 34.32 203.958 37.5472 205.926 40.0031C207.568 42.0514 210.081 43.2954 211.797 45.2733C213.392 47.112 214.534 49.3352 215.938 51.3193C217.644 53.7318 219.546 56.0073 221.259 58.42C222.985 60.8501 224.532 63.4264 226.306 65.818C227.762 67.7803 230.082 69.1432 231.409 71.1891C231.969 72.0517 231.935 73.3178 232.344 74.2812C233.957 78.079 236.622 80.9305 239.801 83.4183C241.051 86.9994 243.243 89.865 245.166 93.0789C247.206 96.4876 252.501 106.302 255.709 107.847C257.556 108.737 259.266 107.967 261.056 107.344C262.975 103.603 262.659 102.191 266.119 99.0851C266.203 98.2501 266.238 97.1707 266.547 96.3904C267.177 94.8027 268.694 93.2367 269.631 91.7784C270.521 90.3937 275.389 81.1459 275.588 80.0818C276.458 75.4355 275.182 67.5638 275.002 62.5713C267.994 55.7888 269.238 48.2641 266.149 40.1291C265.592 38.6604 264.306 37.4081 263.468 36.0707C262.546 34.5981 261.755 33.0136 260.949 31.4747C257.496 24.8824 254.591 18.0154 254.103 10.488C254.041 9.52868 253.882 7.88423 254.263 7.02289C255.499 4.22972 258.342 3.36563 259.395 0Z"/>
	<path d="M98.693 37.4639C100.128 34.7269 102.924 30.8028 105.882 29.7651C109.386 28.536 112.829 29.9014 115.984 31.385C116.025 31.413 116.065 31.4417 116.105 31.4692C117.254 32.2454 118.815 32.5841 119.778 33.593C121.884 35.7999 122.429 38.7701 124.102 41.2091C126.048 44.0451 128.916 46.1397 130.64 49.1332C132.009 51.5097 132.65 54.4422 134.17 56.6847C137.482 59.7134 140.412 63.4323 141.285 67.8996C142.25 75.3986 143.442 74.8843 147.723 80.0994C148.424 80.9523 149.162 81.9163 149.564 82.9497C150.559 85.5074 150.702 88.8123 151.182 91.5244C152.222 97.4114 153.746 102.847 152.871 108.919C152.447 111.865 151.505 114.7 151.113 117.676C150.724 120.618 150.772 124.501 149.587 127.21C147.862 131.151 144.294 134.312 142.348 138.147C141.031 140.744 141.376 143.926 139.556 146.322C138.41 147.829 136.813 149.061 135.811 150.667C133.848 153.813 132.75 157.507 131.275 160.894C130.461 162.763 129.395 164.559 128.695 166.472C128.376 167.341 127.897 168.754 128.017 169.683C128.333 172.126 130.551 174.951 131.516 177.259C132.401 179.375 132.774 181.697 133.563 183.853C134.385 186.099 135.673 188.25 136.304 190.544L137.99 191.87C138.455 193.31 138.906 194.722 139.19 196.212L140.992 197.294C141.953 199.772 142.603 202.168 142.972 204.802L144.84 206.766C145.579 212.064 147.465 216.643 148.687 221.775C149.299 224.347 149.709 226.969 150.279 229.551C152.125 237.924 153.814 245.995 154.011 254.609C154.083 257.794 153.633 260.947 153.574 264.126C153.521 266.959 154.2 271.851 152.404 274.203C150.407 276.82 147.674 276.358 147.424 280L141.144 280C141.136 279.937 141.128 279.874 141.119 279.81C140.825 277.835 140.067 277.217 138.505 276.082C138.131 266.737 136.329 262.954 134.025 254.341C132.601 249.019 131.717 243.514 130.296 238.181C129.128 233.794 127.283 229.131 125.563 224.922C124.396 222.07 122.655 219.61 121.297 216.868C119.92 214.089 119.176 211.05 117.936 208.217C116.614 205.2 114.757 202.535 113.527 199.429C111.893 196.48 109.764 193.796 108.106 190.843C106.944 188.773 105.113 183.015 103.543 182.033C103.115 181.854 102.496 181.634 102.224 181.239C101.523 180.218 101.509 178.577 100.817 177.42C99.6312 175.44 97.7755 173.979 96.7754 171.843C95.8633 169.895 95.5678 167.609 94.8582 165.568C93.381 161.319 90.1844 155.668 87.4749 152.132C85.6684 149.775 83.2039 148.051 81.4545 145.648C78.6939 141.855 76.7 137.451 74.0796 133.539C72.5774 131.297 70.3177 129.757 68.6126 127.694C66.3693 124.98 64.6817 121.83 62.3189 119.203C60.7816 117.494 59.0756 115.932 57.4877 114.269C55.71 112.408 54.0575 110.428 52.2575 108.588C49.1412 105.401 45.7722 102.314 42.5604 99.2116C40.6827 97.3978 38.4707 95.9632 36.6824 94.0509C31.0321 88.0088 25.2556 82.1527 19.4422 76.2644C14.6864 71.4473 10.1142 66.2759 4.47963 62.4715C3.69046 60.8691 3.446 59.7301 3.56766 57.9386L3.38901 57.6342C2.4366 57.2796 1.01285 57.5863 0 57.6734L0 45.4463C1.06391 45.443 2.04986 45.6857 3.10906 45.441C3.7446 44.8939 3.75182 44.5395 3.95852 43.7514C4.003 42.8602 3.99627 42.0391 4.68448 41.372C6.31369 39.7926 9.77853 39.875 11.918 40.012C14.2947 40.1642 17.0144 40.7855 19.1013 41.9512C21.9915 43.5654 24.5905 45.9881 27.1797 48.0509C31.1804 51.2383 35.2198 54.2841 38.9859 57.7657C40.3478 59.0247 41.4889 60.5081 42.8642 61.7527L51.5394 69.6737C52.6883 70.7431 54.0163 71.7662 55.0588 72.931C56.2373 74.2477 56.7527 76.0885 57.937 77.45C59.3067 79.0246 60.8249 80.4719 62.1942 82.0496C63.6612 83.7397 64.9637 85.6032 66.5043 87.2243C68.5359 89.362 70.7704 91.2878 72.7399 93.4981C74.7509 95.7551 76.7491 98.1393 78.5423 100.572C79.5805 101.981 80.4747 103.512 81.5972 104.856C83.0083 106.546 84.8137 107.896 86.2926 109.528C87.8972 111.299 89.2708 113.304 90.7682 115.167C92.1648 116.905 93.6929 118.535 95.0945 120.269C96.6963 122.25 98.0903 124.397 99.6085 126.442C100.864 128.133 102.265 129.736 103.441 131.483C104.921 133.684 106.097 136.065 107.796 138.119C108.515 138.988 109.346 139.884 110.409 140.325C110.551 140.384 110.687 140.423 110.84 140.442C112.368 140.629 114.486 139.769 116.076 139.59C116.505 138.27 116.88 136.659 117.614 135.483C118.474 134.108 119.737 132.866 120.432 131.405C121.109 129.982 121.328 128.336 121.998 126.87C124.776 120.791 128.277 113.84 127.988 106.995C127.874 104.307 127.235 101.614 126.727 98.9786C126.346 97 126.364 93.4736 125.616 91.7845C123.968 89.7618 122.12 87.1901 121.249 84.7255C120.479 82.5461 119.972 80.0823 118.914 78.0332C117.571 75.4288 115.314 73.4926 113.713 71.0665L113.578 70.8588C113.516 69.6968 113.398 68.536 113.298 67.3767Q111.204 64.5295 108.987 61.7769L108.572 58.4029C106.378 56.1465 101.698 48.2409 100.35 45.0588C98.8623 43.1616 99.9619 42.3341 100.116 40.2657C100.204 39.0837 99.389 38.3218 98.693 37.4639Z"/>
	<path fill="#081328" d="M0 45.4463C1.06391 45.443 2.04986 45.6857 3.10906 45.441C3.7446 44.8939 3.75182 44.5395 3.95852 43.7514C3.89335 46.2212 4.15032 56.6487 3.56766 57.9386L3.38901 57.6342C2.4366 57.2796 1.01285 57.5863 0 57.6734L0 45.4463Z"/>
	<path fill="#081328" d="M134.17 56.6847C137.482 59.7134 140.412 63.4323 141.285 67.8996C139.714 69.0032 139.99 69.7322 139.335 71.2996C139.264 71.276 139.192 71.2553 139.122 71.2287C137.368 70.5621 134.554 64.7607 133.795 63.0554C133.137 61.5778 132.22 59.1428 132.938 57.5271C133.172 56.9995 133.676 56.903 134.17 56.6847Z"/>
</svg>
