<svg width="32" height="22" viewBox="0 0 32 22" fill="none" xmlns="http://www.w3.org/2000/svg">
<path d="M30.5364 3.67126C30.1875 2.35737 29.1593 1.32259 27.854 0.971424C25.4878 0.333313 16 0.333313 16 0.333313C16 0.333313 6.51223 0.333313 4.14606 0.971424C2.84068 1.32265 1.81256 2.35737 1.46362 3.67126C0.82962 6.05276 0.82962 11.0215 0.82962 11.0215C0.82962 11.0215 0.82962 15.9903 1.46362 18.3718C1.81256 19.6857 2.84068 20.6774 4.14606 21.0285C6.51223 21.6666 16 21.6666 16 21.6666C16 21.6666 25.4878 21.6666 27.854 21.0285C29.1593 20.6774 30.1875 19.6857 30.5364 18.3718C31.1704 15.9903 31.1704 11.0215 31.1704 11.0215C31.1704 11.0215 31.1704 6.05276 30.5364 3.67126ZM12.897 15.5328V6.51026L20.8269 11.0216L12.897 15.5328Z" fill="white"/>
</svg>
